<svg xmlns="http://www.w3.org/2000/svg" xmlns:xlink="http://www.w3.org/1999/xlink" width="2000" zoomAndPan="magnify" viewBox="0 0 1500 1499.999933" height="2000" preserveAspectRatio="xMidYMid meet" version="1.0"><defs><clipPath id="aad5fb1c1f"><path d="M 5.171875 10.34375 L 1494.671875 10.34375 L 1494.671875 1499.84375 L 5.171875 1499.84375 Z M 5.171875 10.34375 " clip-rule="nonzero"/></clipPath></defs><g clip-path="url(#aad5fb1c1f)"><path fill="#ffffff" d="M 441.289062 15.464844 C 362.078125 19.183594 307.984375 31.882812 260.695312 50.40625 C 211.722656 69.488281 170.257812 95.027344 129.003906 136.492188 C 87.679688 177.957031 62.28125 219.492188 43.410156 268.535156 C 25.097656 315.960938 12.679688 370.054688 9.171875 449.335938 C 5.664062 528.6875 4.890625 554.015625 5.242188 756.21875 C 5.59375 958.347656 6.503906 983.746094 10.292969 1063.167969 C 14.082031 1142.378906 26.710938 1196.402344 45.234375 1243.761719 C 64.316406 1292.730469 89.855469 1334.125 131.320312 1375.449219 C 172.785156 1416.773438 214.320312 1442.101562 263.363281 1461.046875 C 310.71875 1479.359375 364.882812 1491.847656 444.09375 1495.285156 C 523.515625 1498.792969 548.84375 1499.5625 750.976562 1499.144531 C 953.175781 1498.792969 978.503906 1497.878906 1057.925781 1494.089844 C 1137.136719 1490.304688 1191.160156 1477.605469 1238.519531 1459.152344 C 1287.488281 1440 1328.953125 1414.53125 1370.207031 1373.066406 C 1411.460938 1331.601562 1436.859375 1290.066406 1455.804688 1241.023438 C 1474.117188 1193.664062 1486.605469 1139.503906 1490.042969 1060.363281 C 1493.480469 980.941406 1494.320312 955.542969 1493.972656 753.410156 C 1493.621094 551.28125 1492.636719 525.953125 1488.917969 446.53125 C 1485.128906 367.25 1472.5 313.226562 1453.980469 265.867188 C 1434.824219 216.894531 1409.359375 175.5 1367.894531 134.175781 C 1326.429688 92.921875 1284.894531 67.457031 1235.851562 48.582031 C 1188.492188 30.269531 1134.328125 17.78125 1055.117188 14.34375 C 975.699219 10.835938 950.300781 10.0625 748.167969 10.414062 C 546.035156 10.765625 520.710938 11.679688 441.289062 15.464844 M 449.988281 1361.207031 C 377.441406 1358.050781 338.011719 1345.984375 311.703125 1335.878906 C 276.902344 1322.410156 252.136719 1306.273438 225.964844 1280.382812 C 199.867188 1254.355469 183.730469 1229.585938 170.117188 1194.929688 C 159.945312 1168.6875 147.667969 1129.328125 144.230469 1056.714844 C 140.511719 978.273438 139.667969 954.699219 139.320312 755.9375 C 138.96875 557.242188 139.667969 533.667969 143.105469 455.160156 C 146.195312 382.613281 158.332031 343.183594 168.433594 316.945312 C 181.90625 282.144531 197.972656 257.378906 223.933594 231.207031 C 249.960938 205.109375 274.726562 188.972656 309.457031 175.363281 C 335.695312 165.117188 375.058594 152.910156 447.601562 149.472656 C 526.113281 145.753906 549.613281 144.980469 748.378906 144.5625 C 947.144531 144.140625 970.714844 144.84375 1049.226562 148.351562 C 1121.769531 151.507812 1161.203125 163.503906 1187.441406 173.675781 C 1222.242188 187.148438 1247.078125 203.144531 1273.175781 229.175781 C 1299.277344 255.203125 1315.484375 279.898438 1329.023438 314.699219 C 1339.269531 340.871094 1351.476562 380.300781 1354.914062 452.773438 C 1358.632812 531.285156 1359.472656 554.859375 1359.824219 753.550781 C 1360.175781 952.316406 1359.472656 975.890625 1356.035156 1054.328125 C 1352.878906 1126.875 1340.8125 1166.375 1330.707031 1192.613281 C 1317.238281 1227.34375 1301.171875 1252.179688 1275.140625 1278.277344 C 1249.113281 1304.308594 1224.414062 1320.515625 1189.617188 1334.125 C 1163.445312 1344.371094 1124.015625 1356.578125 1051.539062 1360.015625 C 973.03125 1363.734375 949.527344 1364.574219 750.695312 1364.925781 C 552 1365.277344 528.425781 1364.574219 449.917969 1361.136719 M 1056.871094 356.867188 C 1056.941406 406.1875 1097.074219 446.109375 1146.328125 445.96875 C 1195.648438 445.898438 1235.570312 405.835938 1235.5 356.515625 C 1235.429688 307.191406 1195.300781 267.269531 1145.976562 267.339844 C 1096.652344 267.410156 1056.734375 307.542969 1056.804688 356.796875 M 367.339844 755.515625 C 367.761719 966.628906 539.230469 1137.398438 750.273438 1136.976562 C 961.386719 1136.554688 1132.226562 965.152344 1131.804688 754.042969 C 1131.382812 543 959.910156 372.160156 748.800781 372.511719 C 537.757812 372.933594 366.917969 544.402344 367.339844 755.515625 M 501.414062 755.234375 C 501.203125 618.210938 612.058594 506.867188 749.082031 506.65625 C 886.101562 506.378906 997.449219 617.230469 997.726562 754.324219 C 998.007812 891.347656 887.085938 1002.691406 750.0625 1002.902344 C 613.039062 1003.179688 501.695312 892.257812 501.484375 755.234375 " fill-opacity="1" fill-rule="nonzero"/></g></svg>